<?xml version="1.0" encoding="UTF-8"?>
<svg width="2000px" height="2000px" viewBox="0 0 2000 2000" version="1.1" xmlns="http://www.w3.org/2000/svg" xmlns:xlink="http://www.w3.org/1999/xlink">
    <title>Artboard</title>
    <g id="Artboard" stroke="none" stroke-width="1" fill="none" fill-rule="evenodd">
        <path d="M508.533141,1914 C638.965418,1914 733.98463,1887.33733 793.590778,1834.01199 C853.196926,1780.68666 883,1688.77061 883,1558.26387 L883,1558.26387 L883,510 L420.175793,510 L420.175793,1480.38081 C420.175793,1511.25337 412.462056,1535.10945 397.034582,1551.94903 C381.607109,1568.78861 351.45341,1577.2084 306.573487,1577.2084 L306.573487,1577.2084 L153,1577.2084 L153,1914 L508.533141,1914 Z M494.052941,1744 L323,1744 L323,1693.5858 L494.052941,1693.5858 C550.366667,1693.5858 586.266667,1682.73274 601.752941,1661.02663 C617.239216,1639.32051 624.982353,1606.76134 624.982353,1563.34911 L624.982353,1563.34911 L624.982353,679 L682,679 L682,1563.34911 C682,1623.56607 667.921569,1668.7288 639.764706,1698.83728 C611.607843,1728.94576 563.037255,1744 494.052941,1744 L494.052941,1744 Z" id="J" fill="#047857" fill-rule="nonzero"></path>
        <path d="M1847,1213 L1847,843.335878 L1419.75752,843.335878 L1418.24248,87 L991,87 L992.515044,1213 L1847,1213 Z M1727,1043 L1203,1043 L1203,272 L1257.496,272 L1257.496,992.615139 L1727,992.615139 L1727,1043 Z" id="L" fill="#047857" fill-rule="nonzero"></path>
    </g>
</svg>